<svg width="200" height="200" viewBox="0 0 200 200" fill="none" xmlns="http://www.w3.org/2000/svg">
<mask id="path-1-inside-1_103_51" fill="white">
<path fill-rule="evenodd" clip-rule="evenodd" d="M18 0H182C182 9.94113 190.059 18 200 18V182C190.059 182 182 190.059 182 200H18C18 190.059 9.94113 182 0 182V18C9.94113 18 18 9.94113 18 0Z"/>
</mask>
<path fill-rule="evenodd" clip-rule="evenodd" d="M18 0H182C182 9.94113 190.059 18 200 18V182C190.059 182 182 190.059 182 200H18C18 190.059 9.94113 182 0 182V18C9.94113 18 18 9.94113 18 0Z" fill="#1D1B1D"/>
<path d="M182 0H185V-3H182V0ZM18 0V-3H15V0H18ZM200 18H203V15H200V18ZM200 182V185H203V182H200ZM182 200V203H185V200H182ZM18 200H15V203H18V200ZM0 182H-3V185H0V182ZM0 18V15H-3V18H0ZM182 -3H18V3H182V-3ZM200 15C191.716 15 185 8.28427 185 0H179C179 11.598 188.402 21 200 21V15ZM203 182V18H197V182H203ZM185 200C185 191.716 191.716 185 200 185V179C188.402 179 179 188.402 179 200H185ZM18 203H182V197H18V203ZM0 185C8.28427 185 15 191.716 15 200H21C21 188.402 11.598 179 0 179V185ZM-3 18V182H3V18H-3ZM15 0C15 8.28427 8.28427 15 0 15V21C11.598 21 21 11.598 21 0H15Z" fill="#87765A" mask="url(#path-1-inside-1_103_51)"/>
</svg>
