<svg width="857" height="1455" viewBox="0 0 857 1455" fill="none" xmlns="http://www.w3.org/2000/svg">
<g filter="url(#filter0_ii_129_8)">
<path d="M2 90.6376C20.3414 90.6376 35.21 75.769 35.21 57.4276L426.351 3L821.181 57.4276C821.181 75.769 836.05 90.6376 854.391 90.6376V1419.13C836.05 1419.13 821.181 1434 821.181 1452.34H35.21C35.21 1434 20.3414 1419.13 2 1419.13V90.6376Z" fill="#2A272E"/>
</g>
<path d="M2 89.6376H1V90.6376V1419.13V1420.13H2C19.7891 1420.13 34.21 1434.55 34.21 1452.34V1453.34H35.21H821.181H822.181V1452.34C822.181 1434.55 836.602 1420.13 854.391 1420.13H855.391V1419.13V90.6376V89.6376H854.391C836.602 89.6376 822.181 75.2167 822.181 57.4276V56.556L821.318 56.437L426.487 2.00937L426.35 1.99045L426.213 2.00954L35.0722 56.4371L34.21 56.5571V57.4276C34.21 75.2167 19.7891 89.6376 2 89.6376Z" stroke="#322F28" stroke-width="2"/>
<path d="M2 91.5602C20.3414 91.5602 35.21 76.6916 35.21 58.3502L426.351 3.92261L821.181 58.3502C821.181 76.6916 836.05 91.5602 854.391 91.5602" stroke="url(#paint0_diamond_129_8)" stroke-width="3"/>
<defs>
<filter id="filter0_ii_129_8" x="0" y="-3.01904" width="856.391" height="1461.36" filterUnits="userSpaceOnUse" color-interpolation-filters="sRGB">
<feFlood flood-opacity="0" result="BackgroundImageFix"/>
<feBlend mode="normal" in="SourceGraphic" in2="BackgroundImageFix" result="shape"/>
<feColorMatrix in="SourceAlpha" type="matrix" values="0 0 0 0 0 0 0 0 0 0 0 0 0 0 0 0 0 0 127 0" result="hardAlpha"/>
<feOffset dy="-4"/>
<feGaussianBlur stdDeviation="7"/>
<feComposite in2="hardAlpha" operator="arithmetic" k2="-1" k3="1"/>
<feColorMatrix type="matrix" values="0 0 0 0 0 0 0 0 0 0 0 0 0 0 0 0 0 0 0.53 0"/>
<feBlend mode="normal" in2="shape" result="effect1_innerShadow_129_8"/>
<feColorMatrix in="SourceAlpha" type="matrix" values="0 0 0 0 0 0 0 0 0 0 0 0 0 0 0 0 0 0 127 0" result="hardAlpha"/>
<feOffset dy="4"/>
<feGaussianBlur stdDeviation="2"/>
<feComposite in2="hardAlpha" operator="arithmetic" k2="-1" k3="1"/>
<feColorMatrix type="matrix" values="0 0 0 0 0 0 0 0 0 0 0 0 0 0 0 0 0 0 0.25 0"/>
<feBlend mode="normal" in2="effect1_innerShadow_129_8" result="effect2_innerShadow_129_8"/>
</filter>
<radialGradient id="paint0_diamond_129_8" cx="0" cy="0" r="1" gradientUnits="userSpaceOnUse" gradientTransform="translate(427.331 3.92261) rotate(90) scale(86.9831 846.025)">
<stop stop-color="#CEB78C"/>
<stop offset="1" stop-color="#CEB78C" stop-opacity="0"/>
</radialGradient>
</defs>
</svg>
